<svg xmlns="http://www.w3.org/2000/svg" width="1550.000000pt" height="1170.000000pt" viewBox="0 0 1550.000000 1170.000000"><g transform="translate(0.000000,1170.000000) scale(0.100000,-0.100000)" fill="#17403E"><path d="M7122 10998 c-5 -7 -19 -33 -31 -58 -11 -25 -47 -84 -79 -131 -31
-47 -70 -107 -87 -133 -16 -26 -49 -73 -71 -104 -23 -31 -51 -75 -62 -98 -11
-22 -28 -47 -37 -54 -9 -8 -29 -39 -45 -69 -15 -31 -40 -66 -55 -79 -15 -13
-38 -49 -52 -80 -14 -31 -42 -76 -63 -98 -42 -46 -56 -92 -46 -151 4 -21 11
-87 16 -148 5 -60 13 -166 19 -235 6 -69 20 -170 32 -225 19 -88 22 -151 30
-515 25 -1092 22 -1022 45 -1055 12 -16 32 -39 44 -50 12 -11 29 -33 36 -48 8
-15 36 -52 62 -82 76 -87 131 -162 143 -192 5 -15 29 -48 53 -73 23 -25 64
-88 90 -140 70 -139 104 -164 123 -88 4 18 6 850 3 1848 -3 1006 -1 1854 4
1904 11 110 -2 166 -38 166 -13 0 -28 -6 -34 -12z"/><path d="M5928 8253 c-9 -10 -19 -28 -23 -41 -3 -12 -24 -43 -46 -68 -23 -27
-45 -66 -54 -99 -9 -29 -29 -73 -45 -97 -17 -24 -39 -67 -50 -97 -11 -29 -33
-72 -49 -95 -16 -22 -41 -66 -56 -96 -15 -30 -38 -68 -51 -85 -12 -16 -31 -54
-42 -83 -11 -29 -32 -68 -46 -87 -14 -18 -26 -41 -26 -51 0 -20 79 -108 130
-144 19 -14 51 -40 70 -58 45 -41 111 -92 177 -137 29 -20 61 -47 70 -62 10
-14 37 -39 62 -54 24 -16 101 -84 170 -151 69 -68 138 -131 153 -140 15 -9 62
-54 105 -98 42 -45 95 -91 117 -102 51 -26 136 -106 193 -183 24 -33 84 -101
132 -151 48 -50 114 -131 146 -180 32 -49 70 -107 85 -129 53 -79 141 -276
156 -348 25 -116 4 -219 -55 -282 -16 -16 -36 -43 -44 -60 -22 -44 -56 -70
-113 -89 -29 -9 -60 -26 -70 -37 -29 -32 -69 -49 -137 -60 -34 -5 -114 -26
-177 -45 -151 -46 -251 -61 -510 -76 -270 -16 -524 -16 -800 0 -281 16 -372
28 -445 58 -33 14 -96 37 -140 51 -44 14 -96 38 -115 54 -19 16 -57 41 -85 55
-29 15 -85 63 -132 111 -71 75 -83 93 -98 147 -9 33 -26 81 -38 106 -15 32
-22 75 -27 146 -6 101 -17 134 -46 134 -26 0 -53 -44 -69 -114 -9 -39 -29
-100 -45 -136 -24 -55 -30 -88 -39 -205 -22 -279 -23 -343 -12 -520 l11 -180
41 -80 c23 -44 47 -96 54 -116 36 -102 218 -314 330 -385 17 -10 46 -31 65
-45 19 -15 55 -33 80 -39 25 -6 65 -24 90 -40 52 -32 89 -44 178 -60 35 -6
104 -24 155 -39 102 -32 150 -37 412 -51 128 -6 252 -5 430 5 236 13 255 15
334 44 47 16 110 33 140 36 102 11 149 24 196 54 25 16 78 37 116 46 46 11 86
29 114 51 24 18 58 40 77 49 18 10 53 34 78 54 25 20 63 48 85 63 22 15 49 42
60 60 10 18 47 63 81 99 34 37 72 86 84 110 13 24 33 59 46 79 47 71 101 223
118 328 9 56 26 128 38 160 18 45 23 79 23 162 1 62 8 137 19 183 17 73 17 84
2 173 -9 53 -16 137 -16 187 -1 55 -7 108 -15 132 -9 22 -26 118 -40 213 -19
130 -32 186 -51 223 -13 27 -36 93 -50 147 -14 53 -39 121 -55 150 -16 29 -36
82 -45 119 -8 37 -31 92 -50 123 -18 30 -41 78 -49 107 -8 28 -32 71 -51 95
-20 23 -47 66 -59 95 -42 94 -195 331 -261 405 -18 20 -43 56 -55 80 -12 24
-37 61 -55 83 -43 51 -95 118 -137 174 -89 123 -498 561 -522 561 -7 0 -19 -8
-27 -17z"/><path d="M1975 8066 c-15 -15 -37 -66 -60 -139 -20 -64 -47 -136 -61 -161 -14
-24 -34 -77 -45 -116 -11 -40 -31 -95 -46 -123 -29 -58 -83 -221 -83 -252 1
-25 18 -48 47 -63 12 -7 42 -29 67 -50 25 -20 59 -47 76 -60 39 -31 41 -73 4
-107 -15 -14 -30 -25 -34 -25 -4 0 -19 -22 -33 -48 -14 -26 -36 -57 -48 -68
-12 -10 -42 -48 -66 -84 -84 -125 -120 -173 -141 -189 -12 -9 -31 -38 -43 -66
-12 -27 -34 -66 -49 -85 -15 -19 -35 -55 -44 -80 -10 -25 -33 -64 -52 -87 -19
-23 -46 -66 -59 -95 -14 -29 -38 -69 -54 -88 -19 -22 -36 -59 -46 -100 -9 -36
-30 -87 -46 -113 -16 -26 -36 -76 -45 -109 -8 -34 -31 -92 -49 -128 -36 -70
-59 -145 -70 -224 -4 -28 -15 -83 -26 -125 -10 -41 -19 -98 -19 -127 0 -28 -7
-86 -16 -128 -12 -62 -13 -87 -4 -129 6 -28 14 -95 17 -147 4 -64 15 -124 34
-182 16 -48 29 -100 29 -116 0 -45 25 -117 54 -155 15 -20 36 -63 46 -97 11
-37 32 -76 53 -100 20 -21 41 -49 48 -62 26 -48 76 -102 126 -134 29 -18 58
-43 65 -55 7 -11 36 -32 63 -46 28 -14 64 -35 80 -48 46 -34 67 -43 208 -92
119 -41 146 -47 272 -56 269 -20 599 -5 725 32 226 68 294 91 328 114 20 14
69 40 107 57 39 17 86 46 105 65 19 18 60 49 91 69 31 19 67 49 80 66 22 29
72 88 173 205 36 42 65 101 66 136 0 9 13 34 29 56 41 56 56 90 71 153 7 30
24 80 37 110 39 87 48 207 44 570 -3 404 -10 474 -50 560 -20 44 -34 93 -41
153 -13 104 -18 120 -59 170 -33 43 -34 43 -55 139 -9 40 -28 85 -45 109 -17
22 -37 64 -45 93 -9 29 -30 70 -47 92 -17 21 -44 66 -60 99 -28 56 -61 108
-126 198 -15 21 -42 59 -59 84 -18 24 -41 53 -53 64 -12 11 -33 39 -47 61 -14
22 -42 57 -62 78 -44 45 -109 122 -142 170 -34 48 -253 258 -311 297 -13 9
-69 56 -124 104 -55 49 -120 106 -145 128 -25 21 -63 46 -85 55 -22 10 -56 32
-75 50 -19 19 -49 41 -67 50 -17 9 -52 34 -78 56 -55 47 -94 52 -130 16z m264
-1246 c39 -29 71 -56 71 -61 0 -5 24 -25 54 -45 30 -20 57 -42 60 -50 3 -7 36
-34 73 -59 135 -91 172 -122 289 -244 65 -69 132 -136 148 -150 35 -32 153
-149 222 -222 30 -31 54 -68 58 -87 4 -17 23 -47 43 -64 19 -18 41 -47 49 -65
7 -17 31 -51 51 -76 21 -24 50 -67 66 -93 15 -27 38 -63 51 -81 13 -17 29 -60
36 -95 6 -35 23 -89 36 -120 31 -75 31 -85 -12 -195 -32 -82 -42 -98 -92 -142
-32 -26 -82 -61 -112 -76 -30 -15 -72 -43 -92 -61 -43 -38 -50 -40 -170 -54
-58 -6 -110 -19 -155 -38 -97 -43 -244 -55 -553 -49 -299 6 -402 18 -471 53
-28 14 -85 34 -127 45 -98 24 -235 94 -275 139 -17 19 -47 47 -67 61 -21 15
-57 61 -82 103 -65 109 -74 165 -58 365 12 160 19 185 74 275 13 21 29 65 35
96 8 40 23 72 46 101 19 24 44 71 55 105 11 34 32 72 46 85 14 13 35 39 46 59
12 19 36 52 54 72 18 20 43 56 55 80 23 44 55 86 147 189 28 32 52 63 52 68 0
5 45 60 100 122 56 63 112 127 125 143 29 33 32 33 124 -34z"/><path d="M12607 7363 c-12 -27 -35 -65 -50 -85 -16 -20 -36 -59 -47 -87 -10
-28 -34 -72 -53 -98 -18 -27 -42 -68 -51 -93 -17 -44 -34 -71 -143 -240 -28
-44 -54 -93 -58 -109 -3 -16 -22 -47 -41 -70 -81 -94 -66 -173 50 -274 35 -32
75 -74 87 -95 12 -20 65 -82 116 -137 145 -154 161 -172 187 -212 13 -21 38
-51 56 -68 18 -16 40 -48 50 -70 10 -23 36 -62 58 -88 30 -34 44 -61 52 -103
7 -31 25 -84 41 -118 44 -93 41 -144 -14 -204 -24 -26 -51 -60 -61 -75 -10
-16 -38 -38 -62 -49 -25 -10 -66 -32 -92 -48 -28 -17 -104 -44 -187 -66 -267
-70 -345 -83 -575 -94 -118 -5 -267 -15 -330 -20 -76 -8 -653 -12 -1720 -13
-1719 -2 -1699 -2 -2001 49 -160 26 -170 21 -189 -99 -22 -137 -37 -193 -68
-241 -18 -27 -35 -66 -38 -85 -8 -44 -37 -103 -60 -122 -9 -8 -28 -37 -40 -66
-16 -35 -53 -81 -118 -147 -53 -53 -98 -106 -101 -119 -9 -35 11 -76 46 -95
18 -9 51 -34 75 -54 43 -36 96 -58 141 -58 12 0 54 -18 95 -39 76 -40 103 -46
323 -71 139 -16 3677 -8 3887 8 93 7 167 19 200 31 106 38 174 59 241 76 38
10 82 29 103 46 19 15 64 37 98 49 35 11 74 32 87 46 13 14 35 32 49 39 81 43
302 282 337 365 8 19 32 58 53 85 24 32 42 69 49 103 12 55 31 99 63 143 15
19 22 54 29 134 5 60 16 136 24 170 8 37 12 84 8 117 -3 31 -1 70 6 89 6 19
16 68 22 109 6 41 13 90 16 107 4 23 -2 44 -17 70 -35 59 -38 80 -29 223 6
106 5 145 -6 182 -7 26 -17 91 -21 145 -3 54 -14 123 -24 153 -10 30 -24 84
-30 120 -6 36 -18 88 -26 115 -7 28 -18 91 -23 141 -7 70 -17 104 -40 150 -18
35 -39 99 -50 157 -13 66 -30 114 -49 145 -36 59 -48 91 -61 170 -5 34 -19 75
-29 90 -11 15 -30 47 -42 72 -39 78 -71 82 -103 13z"/><path d="M13818 7383 c-9 -10 -23 -31 -32 -48 -9 -16 -25 -41 -36 -55 -12 -14
-28 -53 -36 -85 -9 -33 -26 -71 -39 -85 -13 -14 -40 -61 -60 -104 -20 -43 -44
-90 -55 -103 -11 -14 -29 -50 -40 -81 -12 -31 -39 -79 -60 -107 -38 -51 -80
-135 -80 -163 0 -29 45 -88 140 -182 52 -53 116 -120 142 -150 27 -30 90 -103
140 -161 174 -199 188 -218 209 -266 11 -26 33 -61 49 -78 16 -16 40 -55 55
-86 14 -31 37 -67 50 -79 13 -13 34 -53 46 -89 12 -36 32 -80 45 -96 34 -45
42 -74 54 -190 9 -92 8 -115 -6 -168 -9 -34 -20 -87 -23 -117 -3 -30 -16 -71
-28 -90 -11 -19 -30 -67 -42 -106 -11 -39 -35 -90 -52 -113 -17 -24 -39 -64
-50 -89 -20 -45 -37 -68 -151 -197 -32 -35 -58 -68 -58 -72 0 -16 -196 -211
-227 -227 -18 -9 -46 -33 -62 -54 -17 -20 -46 -46 -66 -56 -19 -10 -41 -29
-49 -41 -8 -12 -35 -32 -60 -43 -24 -12 -60 -35 -78 -51 -19 -16 -60 -41 -92
-55 -32 -14 -75 -40 -97 -57 -22 -17 -66 -40 -99 -50 -33 -10 -90 -34 -127
-53 -118 -60 -297 -124 -391 -141 -50 -8 -136 -29 -192 -45 -164 -49 -336 -62
-715 -56 -176 4 -339 7 -362 8 -30 2 -48 -3 -60 -15 -24 -23 -10 -44 55 -82
102 -60 175 -111 214 -148 21 -20 56 -44 76 -52 20 -9 53 -29 72 -44 20 -16
58 -40 85 -54 28 -14 66 -37 85 -52 19 -14 64 -35 100 -46 36 -11 92 -37 125
-59 33 -21 80 -44 105 -50 25 -7 75 -25 112 -41 89 -39 205 -50 443 -43 184 6
192 7 255 36 36 16 102 40 146 53 45 14 116 42 158 65 42 22 86 40 97 40 11 0
39 18 63 40 24 22 63 49 87 59 25 11 56 32 69 46 14 15 41 35 61 46 20 10 49
33 64 51 15 18 81 90 148 161 66 70 131 146 145 170 13 23 34 53 47 67 13 14
35 50 48 81 14 30 37 69 52 87 44 52 144 259 161 332 8 38 30 90 49 120 36 56
38 63 55 175 6 39 22 95 35 125 13 30 26 64 29 75 16 56 39 256 44 385 5 94
12 154 21 169 24 43 25 333 1 399 -15 40 -20 78 -20 160 0 146 -34 368 -71
461 -16 40 -36 117 -45 170 -11 72 -24 112 -50 158 -19 34 -44 99 -55 145 -11
46 -34 106 -50 134 -16 28 -36 84 -45 123 -11 46 -29 90 -50 122 -19 27 -43
71 -54 98 -11 28 -35 72 -53 98 -19 26 -42 73 -50 103 -9 30 -24 66 -34 79
-10 14 -31 52 -48 85 -32 66 -59 81 -87 49z"/><path d="M3651 1929 c-57 -11 -61 -18 -45 -92 19 -91 21 -1181 2 -1205 -7 -9
-25 -29 -40 -44 -60 -57 -26 -72 161 -69 200 3 213 12 137 109 -63 80 -64 88
-59 267 5 145 8 164 29 204 29 53 29 52 0 96 l-24 35 1 322 c1 178 -2 333 -6
345 -13 38 -69 49 -156 32z"/><path d="M5563 1924 c-32 -7 -30 -45 7 -111 l30 -53 0 -555 0 -556 -23 -22
c-13 -12 -35 -32 -50 -44 -60 -51 -25 -63 175 -63 170 0 206 8 193 41 -3 8
-19 23 -36 33 -62 37 -59 10 -60 619 l-1 555 26 44 c30 52 34 93 9 103 -22 8
-240 15 -270 9z"/><path d="M8908 1918 c-16 -12 -17 -19 -3 -103 13 -74 15 -187 13 -629 l-2
-538 -28 -35 c-66 -84 -19 -110 167 -94 162 14 171 22 109 82 -53 51 -57 62
-39 116 9 25 13 58 10 72 -3 14 -6 270 -7 569 -2 487 -4 544 -18 552 -31 17
-184 23 -202 8z"/><path d="M4258 1889 c-28 -16 -22 -31 32 -84 68 -67 107 -182 91 -270 -13 -71
-64 -166 -108 -206 -42 -36 -166 -99 -255 -128 -75 -25 -81 -36 -42 -72 37
-34 110 -131 134 -178 11 -22 34 -56 50 -75 17 -18 40 -56 51 -82 12 -27 36
-65 54 -86 18 -20 42 -56 53 -80 36 -80 90 -108 210 -108 118 0 132 33 46 106
-36 31 -66 69 -85 106 -16 32 -40 65 -53 73 -13 9 -36 41 -50 70 -14 30 -37
65 -52 77 -14 13 -34 39 -44 58 -10 19 -37 53 -59 75 -24 22 -41 48 -41 61 0
30 41 61 93 69 53 9 65 16 141 76 74 60 143 149 152 197 10 52 -2 175 -20 210
-32 61 -118 154 -160 172 -54 23 -117 32 -138 19z"/><path d="M9485 1890 c-12 -20 6 -47 42 -64 34 -16 103 -70 162 -127 23 -22 51
-66 103 -163 27 -50 51 -254 44 -376 -10 -167 -27 -244 -63 -283 -17 -17 -38
-56 -48 -85 -13 -41 -26 -58 -59 -81 -23 -16 -61 -45 -84 -64 -23 -20 -73 -48
-112 -64 -38 -15 -70 -31 -70 -35 0 -11 70 -28 116 -28 25 0 58 10 85 25 24
14 73 39 109 56 73 35 230 157 248 191 6 13 17 39 25 59 8 19 29 51 46 71 42
48 51 104 51 312 0 195 -7 232 -56 286 -19 21 -41 60 -49 86 -17 58 -107 153
-169 178 -21 9 -53 29 -72 46 -56 48 -230 91 -249 60z"/><path d="M7343 1872 c-7 -4 -21 -33 -32 -65 -11 -31 -31 -76 -45 -100 -35 -60
-34 -101 4 -136 18 -16 44 -59 60 -100 17 -40 39 -84 50 -98 11 -14 29 -53 39
-87 11 -33 35 -95 55 -136 28 -59 36 -86 36 -132 0 -54 2 -59 36 -84 43 -33
60 -64 69 -129 5 -28 14 -68 22 -89 16 -47 10 -70 -28 -114 -33 -37 -36 -54
-13 -73 26 -21 389 -18 411 4 23 22 11 42 -46 77 -52 33 -55 37 -77 117 -7 28
-31 78 -52 112 -23 35 -42 79 -46 105 -5 28 -23 69 -48 106 -26 39 -47 87 -59
136 -11 45 -31 93 -49 118 -17 24 -38 69 -46 102 -9 32 -31 86 -49 119 -18 33
-40 83 -48 110 -19 62 -84 204 -105 228 -17 19 -22 20 -39 9z"/><path d="M11345 1837 c-8 -13 -19 -48 -25 -77 -6 -30 -21 -71 -35 -90 -46 -66
-23 -137 58 -185 25 -14 50 -38 55 -53 8 -20 32 -131 32 -147 0 -1 14 -20 31
-41 41 -51 47 -70 58 -166 8 -73 12 -84 44 -117 40 -41 51 -64 66 -145 6 -31
22 -73 36 -93 35 -52 32 -66 -25 -114 -57 -48 -64 -76 -22 -85 15 -3 32 -7 39
-9 7 -2 40 1 75 6 45 7 86 7 144 -2 91 -13 154 -1 154 29 0 23 -7 32 -62 76
-43 34 -49 45 -77 135 -19 59 -42 113 -61 136 -16 21 -35 56 -41 79 -6 22 -15
57 -20 76 -5 19 -23 52 -39 74 -19 25 -35 65 -46 113 -12 53 -26 88 -52 121
-23 31 -42 71 -54 122 -11 41 -35 102 -53 135 -18 33 -40 86 -49 117 -18 63
-67 128 -97 128 -10 0 -25 -10 -34 -23z"/><path d="M6813 645 c-13 -19 -41 -47 -63 -61 -45 -30 -48 -39 -21 -54 21 -11
209 -14 235 -4 26 10 18 31 -18 52 -19 12 -46 39 -61 61 -31 50 -43 51 -72 6z"/><path d="M10797 600 c-50 -48 -51 -51 -33 -65 39 -30 216 -15 216 17 0 18 -95
98 -115 98 -9 0 -40 -23 -68 -50z"/></g><g transform="translate(0.000000,1170.000000) scale(0.100000,-0.100000)" fill="#17403E"><path d="M2799 9104 c-24 -7 -66 -16 -93 -19 -41 -6 -58 -15 -98 -53 -67 -64
-74 -82 -82 -199 -11 -158 17 -276 71 -309 15 -9 52 -33 82 -53 l55 -36 122 0
122 0 48 43 c27 23 66 57 87 75 93 79 97 360 5 454 -70 73 -233 122 -319 97z"/><path d="M1908 9099 c-114 -17 -174 -71 -237 -215 -51 -114 -52 -161 -7 -215
15 -18 40 -58 56 -89 27 -54 35 -61 115 -104 47 -25 101 -48 120 -52 51 -9
129 12 203 56 103 60 111 67 122 113 6 23 20 72 32 109 19 58 21 72 10 101 -7
18 -12 49 -12 68 0 42 -41 129 -80 168 -55 55 -188 80 -322 60z"/><path d="M9545 3335 c-27 -15 -73 -36 -101 -46 -100 -38 -117 -75 -119 -269
-3 -157 6 -213 37 -247 33 -36 255 -126 291 -119 116 23 256 108 295 180 25
45 25 277 0 321 -39 69 -111 131 -190 164 -112 46 -152 49 -213 16z"/><path d="M10410 3334 c-22 -8 -122 -54 -149 -69 -15 -8 -43 -49 -70 -100 -45
-86 -46 -89 -46 -184 l0 -97 48 -71 c46 -66 54 -73 138 -113 88 -42 89 -42
186 -38 93 4 101 6 159 41 82 50 91 62 113 143 49 189 50 203 22 266 -11 24
-27 65 -36 92 -17 46 -20 49 -101 86 -69 32 -99 40 -166 44 -46 3 -90 3 -98 0z"/></g></svg>